grf
version=1
nRows=52
nColumns=19
inDegrees=yes
endheader
time	ground_force_1_vx	ground_force_1_vy	ground_force_1_vz	ground_force_1_px	ground_force_1_py	ground_force_1_pz	ground_moment_1_mx	ground_moment_1_my	ground_moment_1_mz	ground_force_2_vx	ground_force_2_vy	ground_force_2_vz	ground_force_2_px	ground_force_2_py	ground_force_2_pz	ground_moment_2_mx	ground_moment_2_my	ground_moment_2_mz
3.460000	-11.417165	1533.570801	-387.146729	0.181905	0.000000	-0.790174	0.000000	10.951762	-0.000000	-22.276865	1596.573242	397.167114	0.201098	0.000000	-1.597504	0.000000	-21.578298	-0.000000
3.461000	-11.988198	1542.492554	-387.509155	0.183036	0.000000	-0.789779	0.000000	10.804919	0.000000	-23.728661	1598.795410	397.891266	0.200263	0.000000	-1.597137	0.000000	-22.413097	-0.000000
3.462000	-9.679794	1526.679077	-386.503601	0.182068	0.000000	-0.789841	0.000000	10.767461	0.000000	-24.533176	1594.493408	398.011414	0.200707	0.000000	-1.597601	0.000000	-22.234464	-0.000000
3.463000	-9.480092	1527.633179	-385.615753	0.182086	0.000000	-0.790985	0.000000	10.744635	0.000000	-24.894434	1604.544922	397.006165	0.200967	0.000000	-1.597243	0.000000	-22.051465	-0.000000
3.464000	-8.917808	1528.919312	-386.582306	0.182319	0.000000	-0.790201	0.000000	10.758359	0.000000	-24.974915	1605.976929	399.497742	0.200856	0.000000	-1.597081	0.000000	-21.950919	-0.000000
3.465000	-7.380900	1534.860474	-385.694214	0.181746	0.000000	-0.791279	0.000000	10.660775	0.000000	-25.538958	1596.418945	397.609497	0.201011	0.000000	-1.598117	0.000000	-22.200583	-0.000000
3.466000	-9.476289	1529.730713	-386.617798	0.182197	0.000000	-0.789914	0.000000	10.360174	0.000000	-24.172882	1578.064941	397.851929	0.199354	0.000000	-1.598273	0.000000	-23.103717	-0.000000
3.467000	-7.223724	1520.015137	-385.938019	0.180375	0.000000	-0.790131	0.000000	11.463677	0.000000	-25.416927	1599.280029	395.515564	0.200727	0.000000	-1.597563	0.000000	-21.877766	-0.000000
3.468000	-5.848557	1535.353516	-384.848389	0.181412	0.000000	-0.790981	0.000000	10.759581	0.000000	-25.699224	1611.244873	397.973145	0.200630	0.000000	-1.598042	0.000000	-22.441543	-0.000000
3.469000	-3.310476	1531.668335	-386.857849	0.181786	0.000000	-0.791087	0.000000	10.525572	0.000000	-26.060207	1604.546509	398.132446	0.201099	0.000000	-1.597130	-0.000000	-21.977578	-0.000000
3.470000	-4.116133	1536.162598	-384.044403	0.181488	0.000000	-0.790792	0.000000	10.825390	0.000000	-27.147985	1597.367676	399.939941	0.201083	0.000000	-1.597362	0.000000	-22.037633	-0.000000
3.471000	-3.755070	1536.962158	-383.680115	0.181421	0.000000	-0.791078	0.000000	10.844760	0.000000	-25.577059	1613.001221	398.253662	0.200834	0.000000	-1.597730	0.000000	-22.081608	-0.000000
3.472000	-2.463436	1543.367188	-382.915344	0.181488	0.000000	-0.792003	0.000000	10.755975	0.000000	-25.738293	1600.245850	399.743286	0.201242	0.000000	-1.598065	-0.000000	-22.130282	-0.000000
3.473000	-2.100471	1527.084229	-382.635101	0.179946	0.000000	-0.790877	0.000000	11.409176	0.000000	-25.858389	1598.488281	395.476379	0.201132	0.000000	-1.597821	0.000000	-21.713257	-0.000000
3.474000	-1.089029	1544.357544	-382.271271	0.180745	0.000000	-0.791772	0.000000	10.886092	0.000000	-25.659607	1601.983643	398.133179	0.200682	0.000000	-1.597732	0.000000	-22.404599	-0.000000
3.475000	0.321438	1539.537598	-381.345398	0.181304	0.000000	-0.791218	0.000000	10.698910	-0.000000	-25.859632	1605.022705	398.414185	0.201140	0.000000	-1.598033	0.000000	-22.065382	-0.000000
3.476000	0.733015	1545.485229	-381.905579	0.180604	0.000000	-0.791502	-0.000000	10.461643	0.000000	-25.618885	1595.943115	397.649963	0.201285	0.000000	-1.598159	0.000000	-22.058850	-0.000000
3.477000	1.775574	1539.241821	-379.936768	0.180497	0.000000	-0.791689	0.000000	10.908611	0.000000	-25.256935	1605.174438	397.087402	0.201170	0.000000	-1.597331	-0.000000	-22.118331	-0.000000
3.478000	3.186422	1537.803711	-379.894531	0.180436	0.000000	-0.791130	0.000000	10.850898	0.000000	-25.015636	1607.570435	397.207397	0.200616	0.000000	-1.597748	0.000000	-22.283447	-0.000000
3.479000	3.509520	1544.051147	-379.533508	0.180362	0.000000	-0.791868	0.000000	10.911267	0.000000	-24.854403	1615.540527	397.368439	0.200713	0.000000	-1.597636	0.000000	-22.216589	-0.000000
3.480000	4.880503	1538.939575	-379.330780	0.180017	0.000000	-0.792184	0.000000	10.971504	0.000000	-25.377861	1608.844360	396.443909	0.200581	0.000000	-1.597392	-0.000000	-22.377951	-0.000000
3.481000	4.960993	1534.418091	-379.452942	0.180688	0.000000	-0.791817	0.000000	10.776446	0.000000	-23.605528	1613.476074	396.363281	0.201190	0.000000	-1.597586	0.000000	-21.775141	-0.000000
3.482000	6.980455	1535.878052	-377.517273	0.180431	0.000000	-0.792479	0.000000	10.589092	0.000000	-26.549429	1602.620605	396.242279	0.201420	0.000000	-1.596643	0.000000	-22.602812	-0.000000
3.483000	6.652792	1539.554199	-378.928650	0.180729	0.000000	-0.792433	0.000000	10.786966	0.000000	-23.929100	1603.745605	398.009613	0.201151	0.000000	-1.597510	0.000000	-21.788173	-0.000000
3.484000	6.578768	1545.843506	-376.152588	0.179722	0.000000	-0.791970	-0.000000	10.966937	0.000000	-24.010130	1615.697998	395.719360	0.200750	0.000000	-1.597224	0.000000	-22.181788	-0.000000
3.485000	7.858612	1557.877808	-376.585754	0.179680	0.000000	-0.792495	0.000000	11.018044	0.000000	-24.292015	1616.660645	396.845520	0.200788	0.000000	-1.598169	0.000000	-22.254426	-0.000000
3.486000	9.036360	1550.975586	-377.919159	0.179715	0.000000	-0.792406	0.000000	10.831230	0.000000	-23.890032	1612.358032	396.161743	0.200837	0.000000	-1.598339	0.000000	-22.241608	-0.000000
3.487000	8.465706	1549.527466	-377.272064	0.179741	0.000000	-0.793032	0.000000	10.974350	0.000000	-23.367126	1621.765747	396.041870	0.200270	0.000000	-1.598105	-0.000000	-22.516184	-0.000000
3.488000	11.329168	1553.067139	-378.402313	0.179578	0.000000	-0.793065	0.000000	11.105620	0.000000	-23.045624	1618.573975	396.121460	0.200469	0.000000	-1.597941	0.000000	-22.379326	-0.000000
3.489000	10.442644	1551.457275	-377.473358	0.179728	0.000000	-0.792823	0.000000	10.909703	0.000000	-22.803772	1622.233521	396.805542	0.199992	0.000000	-1.598002	0.000000	-22.546067	-0.000000
3.490000	10.969248	1554.193604	-376.427917	0.179372	0.000000	-0.793816	0.000000	11.002496	0.000000	-22.361343	1627.344971	397.607300	0.199817	0.000000	-1.598791	0.000000	-22.391562	-0.000000
3.491000	11.126423	1537.527344	-379.253296	0.179431	0.000000	-0.791874	0.000000	11.423880	0.000000	-19.784496	1626.531494	396.321106	0.200164	0.000000	-1.597478	0.000000	-21.904191	-0.000000
3.492000	11.854252	1564.911133	-377.110962	0.179968	0.000000	-0.794230	0.000000	10.806126	0.000000	-20.390226	1625.916748	398.818970	0.200475	0.000000	-1.598765	0.000000	-22.528001	-0.000000
3.493000	12.983768	1555.810669	-377.030609	0.179109	0.000000	-0.793223	0.000000	11.095018	0.000000	-18.133089	1630.687012	396.002258	0.200376	0.000000	-1.598149	0.000000	-21.779415	-0.000000
3.494000	13.513035	1551.496826	-376.585754	0.178610	0.000000	-0.793002	0.000000	10.976701	0.000000	-19.706223	1629.720459	395.237946	0.199673	0.000000	-1.598533	0.000000	-22.607245	-0.000000
3.495000	13.183849	1568.588501	-376.628021	0.180287	0.000000	-0.793756	0.000000	10.722851	0.000000	-18.580482	1635.150391	397.532043	0.200315	0.000000	-1.598281	-0.000000	-22.550593	-0.000000
3.496000	16.468395	1550.866821	-376.829102	0.178568	0.000000	-0.792585	0.000000	10.526656	0.000000	-19.103943	1634.341553	394.835602	0.199774	0.000000	-1.597913	0.000000	-22.641328	-0.000000
3.497000	17.520466	1557.576416	-376.142761	0.179259	0.000000	-0.793482	0.000000	10.037245	0.000000	-17.735798	1641.683960	395.036407	0.199652	0.000000	-1.597869	0.000000	-22.557672	-0.000000
3.498000	15.647908	1554.377441	-377.070984	0.179060	0.000000	-0.793004	0.000000	10.969272	0.000000	-17.253336	1636.599365	394.633728	0.200412	0.000000	-1.598939	0.000000	-22.238305	-0.000000
3.499000	17.381855	1552.942871	-375.941711	0.178810	0.000000	-0.792707	0.000000	10.956419	0.000000	-16.449787	1646.314819	395.237946	0.200284	0.000000	-1.596074	0.000000	-22.414282	-0.000000
3.500000	18.150692	1570.456543	-371.907623	0.177708	0.000000	-0.793282	0.000000	10.925425	0.000000	-17.253750	1642.000488	395.317749	0.199829	0.000000	-1.597768	0.000000	-22.530328	-0.000000
3.501000	18.469604	1553.265381	-375.982788	0.178577	0.000000	-0.793106	0.000000	11.116736	0.000000	-16.006119	1649.492798	394.674988	0.199948	0.000000	-1.597956	0.000000	-22.422650	-0.000000
3.502000	19.481047	1558.731323	-375.458069	0.177967	0.000000	-0.793985	0.000000	11.154154	0.000000	-15.967604	1647.413330	395.600037	0.199496	0.000000	-1.598203	0.000000	-22.818273	-0.000000
3.503000	20.933281	1559.547729	-375.215698	0.177912	0.000000	-0.793527	0.000000	11.092170	0.000000	-15.123470	1644.705566	395.438965	0.199415	0.000000	-1.598045	0.000000	-22.866815	-0.000000
3.504000	21.414318	1560.506104	-374.449036	0.177522	0.000000	-0.794527	0.000000	11.305615	0.000000	-17.814484	1656.184814	394.915710	0.199642	0.000000	-1.597635	0.000000	-22.349419	-0.000000
3.505000	20.045235	1562.600586	-374.449982	0.177644	0.000000	-0.793565	0.000000	11.209934	0.000000	-13.514027	1658.716064	394.352295	0.199076	0.000000	-1.596805	0.000000	-22.790747	-0.000000
3.506000	22.542692	1550.706787	-375.015564	0.178495	0.000000	-0.793445	0.000000	11.054927	0.000000	-12.425972	1661.443970	395.800720	0.199879	0.000000	-1.597921	-0.000000	-22.286674	-0.000000
3.507000	21.806112	1570.247314	-374.368713	0.178760	0.000000	-0.793856	0.000000	11.319753	0.000000	-13.956454	1661.290771	394.755066	0.199570	0.000000	-1.598015	0.000000	-22.680936	-0.000000
3.508000	25.257345	1567.545776	-373.764587	0.178473	0.000000	-0.792944	0.000000	10.350532	0.000000	-13.635227	1659.852051	395.640930	0.199406	0.000000	-1.597847	0.000000	-22.905459	-0.000000
3.509000	26.089170	1559.872070	-374.207825	0.177903	0.000000	-0.793604	0.000000	11.225264	0.000000	-12.910777	1666.541260	395.640625	0.199384	0.000000	-1.597459	0.000000	-22.807439	-0.000000
3.510000	25.247837	1576.720703	-372.598145	0.177488	0.000000	-0.794311	0.000000	11.204822	0.000000	-12.668790	1659.377930	396.526245	0.199930	0.000000	-1.598131	0.000000	-22.604073	-0.000000
3.511000	25.811264	1565.808960	-372.639038	0.177548	0.000000	-0.794627	0.000000	11.257568	0.000000	-13.754773	1666.704468	395.843201	0.199761	0.000000	-1.598229	-0.000000	-22.753846	-0.000000
